<?xml version="1.0" encoding="UTF-8" standalone="no"?>
<!-- Created with Inkscape (http://www.inkscape.org/) -->
<svg xmlns:dc="http://purl.org/dc/elements/1.1/" xmlns:cc="http://creativecommons.org/ns#" xmlns:rdf="http://www.w3.org/1999/02/22-rdf-syntax-ns#" xmlns:svg="http://www.w3.org/2000/svg" xmlns="http://www.w3.org/2000/svg" xmlns:sodipodi="http://sodipodi.sourceforge.net/DTD/sodipodi-0.dtd" xmlns:inkscape="http://www.inkscape.org/namespaces/inkscape" width="30.749134" height="13.4" id="svg2" version="1.1" inkscape:version="0.48.2 r9819" sodipodi:docname="marker.svg">
  <defs id="defs4"/>
  <sodipodi:namedview id="base" pagecolor="#ffffff" bordercolor="#666666" borderopacity="1.0" inkscape:pageopacity="0.0" inkscape:pageshadow="2" inkscape:zoom="8" inkscape:cx="12.155113" inkscape:cy="-2.9535785" inkscape:document-units="px" inkscape:current-layer="layer1" showgrid="false" inkscape:window-width="1280" inkscape:window-height="962" inkscape:window-x="1432" inkscape:window-y="-8" inkscape:window-maximized="1" showguides="true" inkscape:guide-bbox="true" width="303.31px" fit-margin-top="0" fit-margin-left="0" fit-margin-right="0" fit-margin-bottom="0" inkscape:showpageshadow="false"/>
  <metadata id="metadata7">
    <rdf:RDF>
      <cc:Work rdf:about="">
        <dc:format>image/svg+xml</dc:format>
        <dc:type rdf:resource="http://purl.org/dc/dcmitype/StillImage"/>
        <dc:title/>
      </cc:Work>
    </rdf:RDF>
  </metadata>
  <g inkscape:label="Layer 1" inkscape:groupmode="layer" id="layer1" transform="translate(1.592944,-1039.6565)">
    <path style="fill:#ffffff;fill-opacity:1;stroke:none" d="m 12.990353,1039.6695 c -0.759962,0 -1.412906,0.7357 -1.763886,1.8177 l -3.9579903,5.4528 4.1946093,4.8471 c 0.373433,0.76 0.909745,1.2694 1.527267,1.2694 l 13.982028,0 c 1.130011,0 2.043528,-1.6128 2.043528,-3.6065 l 0,-6.1742 c 0,-1.9936 -0.913517,-3.6063 -2.043528,-3.6063 l -13.982028,0 z" id="path3779" inkscape:connector-curvature="0"/>
    <path style="fill:#ffffff;fill-opacity:1;stroke:none" d="m 2.0078872,1043.0427 c -1.98868502,0 -3.6008312,1.6879 -3.6008312,3.7699 0,2.082 1.61214618,3.7699 3.6008312,3.7699 1.9886851,0 3.6008314,-1.6879 3.6008314,-3.7699 0,-2.082 -1.6121463,-3.7699 -3.6008314,-3.7699 z" id="rect3757" inkscape:connector-curvature="0"/>
    <rect style="fill:#008000;fill-opacity:1;stroke:none" id="rect3771" width="13.387015" height="2.0917213" x="-1053.0405" y="-29.156191" transform="matrix(0,-1,-1,0,0,0)"/>
    <text xml:space="preserve" style="font-size:8.31536198000000050px;font-style:normal;font-weight:normal;line-height:125%;letter-spacing:0px;word-spacing:0px;fill:#000000;fill-opacity:1;stroke:none;font-family:Sans" x="13.188148" y="1048.9852" id="text3773" sodipodi:linespacing="125%"><tspan sodipodi:role="line" id="tspan3775" x="13.188148" y="1048.9852" style="font-style:normal;font-variant:normal;font-weight:bold;font-stretch:normal;font-family:Verdana;-inkscape-font-specification:Verdana Bold;fill:#000000;fill-opacity:1">22</tspan></text>
  </g>
</svg>